<svg id="Capa_1" data-name="Capa 1" xmlns="http://www.w3.org/2000/svg" viewBox="0 0 57.94 9.26"><title>ActivarSo</title><path d="M3.09,10.49l.63-.08,3-7.71h1l2.92,7.71.63.08v.74H8.8v-.74l.65-.11L8.88,8.81H5.47l-.58,1.57.64.11v.74H3.09ZM5.83,7.85h2.7L7.21,4.18h0Z" transform="translate(-3.09 -2.09)"/><path d="M14.93,10.45a1.59,1.59,0,0,0,1-.35,1.09,1.09,0,0,0,.43-.87h1v0a1.76,1.76,0,0,1-.73,1.46,2.67,2.67,0,0,1-1.76.64,2.58,2.58,0,0,1-2.12-.91,3.5,3.5,0,0,1-.73-2.26V7.94a3.47,3.47,0,0,1,.74-2.26,2.55,2.55,0,0,1,2.11-.9A3.47,3.47,0,0,1,16.29,5a2.83,2.83,0,0,1,1,.69l.05,1.4h-.92l-.25-1a1.53,1.53,0,0,0-.53-.32,1.81,1.81,0,0,0-.72-.13,1.39,1.39,0,0,0-1.3.66,3.06,3.06,0,0,0-.39,1.6v.25a3.24,3.24,0,0,0,.38,1.62A1.41,1.41,0,0,0,14.93,10.45Z" transform="translate(-3.09 -2.09)"/><path d="M20.56,3.36V4.89h1.2v.86h-1.2V9.6a.82.82,0,0,0,.19.62.63.63,0,0,0,.49.19l.34,0,.32-.06.16.8a1.64,1.64,0,0,1-.48.17,3.48,3.48,0,0,1-.64.07,1.51,1.51,0,0,1-1.12-.43,1.87,1.87,0,0,1-.41-1.33V5.75h-1V4.89h1V3.36Z" transform="translate(-3.09 -2.09)"/><path d="M22.94,10.49l1-.16V5.8l-1-.16V4.89h2.11v5.44l1,.16v.74H22.94Zm2.11-7.22H23.9V2.09h1.15Z" transform="translate(-3.09 -2.09)"/><path d="M29.06,5.64l-.76.11,1.3,3.61.11.46h0l.12-.46,1.26-3.61-.77-.11V4.89H32.8v.75l-.52.08-2.13,5.51h-.87L27.13,5.72l-.52-.08V4.89h2.45Z" transform="translate(-3.09 -2.09)"/><path d="M37.63,11.23c0-.17-.06-.32-.08-.46s0-.27,0-.41a2.78,2.78,0,0,1-.84.71,2.35,2.35,0,0,1-2.57-.2,1.74,1.74,0,0,1-.52-1.36,1.58,1.58,0,0,1,.73-1.39,3.52,3.52,0,0,1,2-.49H37.5V6.89A1.16,1.16,0,0,0,37.15,6a1.37,1.37,0,0,0-1-.33,2.49,2.49,0,0,0-.76.11,1.56,1.56,0,0,0-.54.31l-.12.67h-.89V5.54a3.49,3.49,0,0,1,1-.56,4.08,4.08,0,0,1,1.33-.2A2.66,2.66,0,0,1,38,5.33a1.93,1.93,0,0,1,.67,1.57v3.3c0,.07,0,.15,0,.23l.47.06v.74Zm-1.86-.84a2,2,0,0,0,1-.28,1.61,1.61,0,0,0,.68-.66v-1H36.27a1.74,1.74,0,0,0-1.12.33,1,1,0,0,0-.41.79.8.8,0,0,0,.25.64A1.19,1.19,0,0,0,35.77,10.39Z" transform="translate(-3.09 -2.09)"/><path d="M40.1,5.64V4.89h2l.11.92a2.16,2.16,0,0,1,.67-.76,1.54,1.54,0,0,1,.9-.27,1.37,1.37,0,0,1,.28,0,.87.87,0,0,1,.22,0l-.15,1.07-.66,0a1.36,1.36,0,0,0-.77.21,1.46,1.46,0,0,0-.48.6v3.64l1,.16v.74H40.1v-.74l1-.16V5.8Z" transform="translate(-3.09 -2.09)"/><path d="M54.12,5.22h-.87L53,4a2.19,2.19,0,0,0-.7-.37,3.54,3.54,0,0,0-1-.14,2.24,2.24,0,0,0-1.42.39,1.24,1.24,0,0,0-.49,1,1.13,1.13,0,0,0,.5.93,4.69,4.69,0,0,0,1.62.65,4.73,4.73,0,0,1,2,1,2.09,2.09,0,0,1,.7,1.61,2,2,0,0,1-.84,1.66,3.57,3.57,0,0,1-2.2.63A4.37,4.37,0,0,1,49.48,11a3.4,3.4,0,0,1-1.24-.84V8.6h.86l.23,1.23a2.86,2.86,0,0,0,.79.45,3.32,3.32,0,0,0,1.11.17,2.28,2.28,0,0,0,1.38-.37,1.16,1.16,0,0,0,.51-1,1.27,1.27,0,0,0-.44-1,3.78,3.78,0,0,0-1.56-.66,5.37,5.37,0,0,1-2.11-1,2,2,0,0,1-.76-1.58,2,2,0,0,1,.85-1.67,3.48,3.48,0,0,1,2.21-.66,4.12,4.12,0,0,1,1.63.31,3.67,3.67,0,0,1,1.18.74Z" transform="translate(-3.09 -2.09)"/><path d="M55.36,8a3.51,3.51,0,0,1,.76-2.31,2.55,2.55,0,0,1,2.07-.91,2.58,2.58,0,0,1,2.08.9A3.49,3.49,0,0,1,61,8v.13a3.45,3.45,0,0,1-.76,2.32,2.82,2.82,0,0,1-4.15,0,3.52,3.52,0,0,1-.76-2.32Zm1.16.13a3.07,3.07,0,0,0,.42,1.67,1.54,1.54,0,0,0,2.51,0,3,3,0,0,0,.43-1.67V8a2.94,2.94,0,0,0-.43-1.65,1.51,1.51,0,0,0-2.51,0A3,3,0,0,0,56.52,8Z" transform="translate(-3.09 -2.09)"/></svg>